<svg xmlns="http://www.w3.org/2000/svg" viewBox="0 0 100 100"><circle cx="50" cy="50" r="46" fill="#0D1B2A"/><g fill="none" stroke="#FF9932" stroke-width="2.5"><circle cx="50" cy="50" r="38"/><circle cx="50" cy="50" r="7" fill="#FF9932"/></g><g stroke="#FF9932" stroke-width="1.4"><line x1="50" y1="50" x2="86.00" y2="50.00"/><line x1="50" y1="50" x2="84.77" y2="59.32"/><line x1="50" y1="50" x2="81.18" y2="68.00"/><line x1="50" y1="50" x2="75.46" y2="75.46"/><line x1="50" y1="50" x2="68.00" y2="81.18"/><line x1="50" y1="50" x2="59.32" y2="84.77"/><line x1="50" y1="50" x2="50.00" y2="86.00"/><line x1="50" y1="50" x2="40.68" y2="84.77"/><line x1="50" y1="50" x2="32.00" y2="81.18"/><line x1="50" y1="50" x2="24.54" y2="75.46"/><line x1="50" y1="50" x2="18.82" y2="68.00"/><line x1="50" y1="50" x2="15.23" y2="59.32"/><line x1="50" y1="50" x2="14.00" y2="50.00"/><line x1="50" y1="50" x2="15.23" y2="40.68"/><line x1="50" y1="50" x2="18.82" y2="32.00"/><line x1="50" y1="50" x2="24.54" y2="24.54"/><line x1="50" y1="50" x2="32.00" y2="18.82"/><line x1="50" y1="50" x2="40.68" y2="15.23"/><line x1="50" y1="50" x2="50.00" y2="14.00"/><line x1="50" y1="50" x2="59.32" y2="15.23"/><line x1="50" y1="50" x2="68.00" y2="18.82"/><line x1="50" y1="50" x2="75.46" y2="24.54"/><line x1="50" y1="50" x2="81.18" y2="32.00"/><line x1="50" y1="50" x2="84.77" y2="40.68"/></g></svg>